<svg xmlns="http://www.w3.org/2000/svg" enable-background="new 0 0 512 512" viewBox="0 0 512 512" id="engagement-rings"><polygon fill="#d3f0fd" points="372.788 176.668 430.101 90.545 286.836 90.545 344.201 176.668"></polygon><polygon fill="#d3f0fd" points="363.785 176.668 385.061 90.545 331.916 90.545 353.18 176.668"></polygon><polygon fill="#ededed" points="372.79 176.668 403.85 129.994 313.114 129.994 344.203 176.668"></polygon><polygon fill="#a6e1fb" points="305.323 54.034 286.836 90.545 430.101 90.545 411.613 54.034"></polygon><path fill="#fee8b3" d="M153.547,158.939c-82.469,0-149.551,67.081-149.551,149.512c0,82.43,67.082,149.512,149.551,149.512c82.431,0,149.474-67.082,149.474-149.512C303.021,226.021,235.978,158.939,153.547,158.939z M153.547,423.166c-63.292,0-114.753-51.461-114.753-114.715c0-63.254,51.461-114.715,114.753-114.715c63.215,0,114.677,51.461,114.677,114.715C268.224,371.705,216.762,423.166,153.547,423.166z"></path><path fill="#fddd8d" d="M358.523,158.955c-39.638,0-75.757,15.479-102.556,40.758c8.479,8,16.039,16.959,22.439,26.759c20.679-20.239,48.958-32.719,80.118-32.719c63.198,0,114.676,51.438,114.676,114.716c0,63.238-51.478,114.717-114.676,114.717c-63.318,0-114.756-51.479-114.756-114.717c0-18.519,4.399-35.999,12.2-51.478c-5.761-11.4-13.36-21.72-22.4-30.56c-15.56,23.56-24.599,51.759-24.599,82.037c0,82.398,67.078,149.476,149.555,149.476c82.397,0,149.475-67.078,149.475-149.476C507.998,226.033,440.92,158.955,358.523,158.955z"></path><path fill="#333" d="M389.897,158.192l17.291-25.974c0.04-0.08,0.08-0.119,0.12-0.199l26.119-39.279c0.001-0.001,0.002-0.003,0.002-0.005c0.023-0.034,0.055-0.059,0.076-0.094c0.117-0.19,0.189-0.398,0.271-0.602c0.044-0.105,0.105-0.202,0.14-0.311c0.06-0.19,0.076-0.389,0.106-0.585c0.021-0.145,0.067-0.285,0.072-0.432c0.015-0.345-0.019-0.69-0.094-1.03c-0.016-0.07-0.052-0.134-0.071-0.203c-0.069-0.251-0.142-0.502-0.261-0.74l-18.488-36.514c-0.027-0.055-0.073-0.096-0.104-0.148c-0.055-0.097-0.126-0.178-0.188-0.27c-0.224-0.327-0.485-0.611-0.788-0.855c-0.055-0.044-0.081-0.109-0.139-0.151c-0.031-0.023-0.07-0.025-0.103-0.047c-0.387-0.266-0.811-0.466-1.269-0.582c-0.103-0.026-0.202-0.024-0.306-0.043c-0.223-0.038-0.442-0.094-0.674-0.094h-106.29c-0.244,0-0.475,0.057-0.709,0.1c-0.092,0.016-0.18,0.015-0.27,0.037c-0.457,0.116-0.88,0.314-1.266,0.578c-0.035,0.023-0.077,0.025-0.111,0.051c-0.062,0.045-0.09,0.114-0.148,0.162c-0.297,0.242-0.555,0.522-0.774,0.845c-0.063,0.093-0.135,0.175-0.189,0.272c-0.03,0.053-0.075,0.092-0.103,0.146l-18.488,36.514c-0.475,0.942-0.551,2.019-0.242,3.001c0.048,0.156,0.135,0.3,0.202,0.449c0.069,0.151,0.116,0.31,0.204,0.452c0.012,0.02,0.029,0.032,0.041,0.051c0.018,0.028,0.024,0.061,0.043,0.088l26.278,39.438l17.312,26.003c-26.304,5.478-50.74,17.844-71.056,36.096c-27.199-24.461-63.139-39.379-102.491-39.379c-84.677,0-153.555,68.878-153.555,153.515c0,84.638,68.878,153.515,153.555,153.515c39.319,0,75.261-14.955,102.458-39.349c27.204,24.432,63.145,39.328,102.51,39.328c84.626,0,153.476-68.849,153.476-153.476C511.999,234.573,459.526,172.716,389.897,158.192z M401.708,125.978h-21.267l7.756-31.431h34.426L401.708,125.978z M423.588,86.54h-30.674l18.084-24.865L423.588,86.54z M403.758,58.033l-18.704,25.714l-18.723-25.714H403.758z M377.193,86.54h-37.425l18.701-25.71L377.193,86.54z M379.947,94.547l-7.756,31.431h-27.403l-7.756-31.431H379.947z M350.615,58.033l-18.703,25.714l-18.726-25.714H350.615z M305.936,61.672l18.11,24.867h-30.7L305.936,61.672z M294.317,94.547h34.466l7.756,31.431h-21.267L294.317,94.547z M320.591,133.977h75.797l-15.106,22.676c-7.429-1.11-15.026-1.698-22.759-1.698c-7.698,0-15.319,0.59-22.82,1.71L320.591,133.977z M153.555,453.967C73.279,453.967,8,388.69,8,308.452s65.278-145.515,145.555-145.515c38.523,0,73.577,15.09,99.634,39.637c0.014,0.014,0.02,0.033,0.033,0.047c8.355,7.886,15.703,16.644,21.835,26.038c0.041,0.063,0.113,0.094,0.158,0.154c15.035,22.9,23.816,50.256,23.816,79.638c0,27.677-7.855,53.539-21.336,75.598c-6.774-7.234-12.587-15.37-17.241-24.212c7.53-15.538,11.778-32.966,11.778-51.386c0-65.478-53.239-118.716-118.677-118.716c-65.477,0-118.756,53.238-118.756,118.716c0,65.437,53.279,118.716,118.756,118.716c30.488,0,58.294-11.587,79.34-30.609c5.16,7.33,10.915,14.21,17.246,20.523C224.434,440.001,190.601,453.967,153.555,453.967z M283.604,227.092c20.498-18.927,46.962-29.337,74.919-29.337c61.025,0,110.676,49.666,110.676,110.715s-49.651,110.715-110.676,110.715c-28.905,0-55.249-11.137-74.992-29.329c14.841-23.615,23.499-51.502,23.499-81.404C307.031,278.584,298.423,250.7,283.604,227.092z M264.233,308.452c0,14.787-2.919,28.91-8.241,41.83c-5.288-12.911-8.226-27.022-8.226-41.812c0-14.558,2.794-28.587,8.238-41.839C261.292,279.545,264.233,293.66,264.233,308.452z M228.494,227.082c-15.351,24.377-23.524,52.42-23.524,81.388c0,29.871,8.613,57.756,23.444,81.362c-19.713,18.189-45.992,29.337-74.858,29.337c-61.077,0-110.756-49.678-110.756-110.716s49.679-110.716,110.756-110.716C182.432,197.736,208.761,208.881,228.494,227.082z M358.524,453.946c-80.259,0-145.554-65.26-145.554-145.476c0-26.851,7.336-52.893,21.265-75.638c6.816,7.281,12.605,15.394,17.253,24.202c-7.781,16.109-11.722,33.405-11.722,51.436c0,65.459,53.276,118.715,118.758,118.715c65.439,0,118.676-53.256,118.676-118.715s-53.237-118.715-118.676-118.715c-29.56,0-57.576,10.82-79.425,30.573c-5.168-7.344-10.933-14.236-17.275-20.558c26.691-23.773,60.861-36.815,96.7-36.815C438.74,162.955,504,228.234,504,308.47C504,388.686,438.74,453.946,358.524,453.946z"></path></svg>